# xmcd CD database file
#
# Track frame offsets:
#	150
#	12037
#	30826
#	55835
#	74579
#	89969
#	106192
#	120052
#	136365
#	155846
#	177664
#	192450
#	210030
#	231168
#	253421
#	266758
#	277720
#	289336
#
# Disc length: 4233 seconds
#
# Revision: 0
# Processed by: cddbd v1.5.1PL0 Copyright (c) Steve Scherf et al.
# Submitted via: CDex 1.60beta1
#
DISCID=05108712
DTITLE=井上陽水 - 夢の中へ 井上陽水ベストアルバム
DYEAR=1999
DGENRE=Blues
TTITLE0=夢の中へ
TTITLE1=東へ西へ
TTITLE2=傘がない
TTITLE3=氷の世界
TTITLE4=心もよう
TTITLE5=闇夜の国から
TTITLE6=太陽の町
TTITLE7=ロンドン急行
TTITLE8=帰れない二人
TTITLE9=夏祭り
TTITLE10=いつのまにか少女は
TTITLE11=断絶
TTITLE12=紙飛行機
TTITLE13=人生が二度あれば
TTITLE14=御免
TTITLE15=白い一日
TTITLE16=夜のバス
TTITLE17=待ちぼうけ
EXTD=YEAR: 1999
EXTT0=
EXTT1=
EXTT2=
EXTT3=
EXTT4=
EXTT5=
EXTT6=
EXTT7=
EXTT8=
EXTT9=
EXTT10=
EXTT11=
EXTT12=
EXTT13=
EXTT14=
EXTT15=
EXTT16=
EXTT17=
PLAYORDER=
